<?xml version="1.0" encoding="utf-8"?>
<!-- Generator: Adobe Illustrator 19.0.0, SVG Export Plug-In . SVG Version: 6.00 Build 0)  -->
<svg version="1.1" id="Layer_3" xmlns="http://www.w3.org/2000/svg" xmlns:xlink="http://www.w3.org/1999/xlink" x="0px" y="0px"
	 viewBox="0 0 595.3 419.5" style="enable-background:new 0 0 595.3 419.5;" xml:space="preserve">
<path id="XMLID_6_" d="M458.1,168.4c0,0,10-35.8,1.9-89.4c-0.9-6.1-2.6-15.2-9.7-23.2c-6.3-7.2-15.4-11.7-27.2-13.7H327l44.5,44.5
	L117.7,340.5l1.3,46.9l58.8-58.8v53.6l96.4-96.4l88.9,88.9h-19.7c0.1,3-1,5.8-3.1,8.4h79.8c-2.4-4-5.5-7.5-9.5-9.5h-32.7l-58.6-58.6
	l-2.2-24.1c16.6-0.9,50.5-5.2,82.7-29.1C440.3,231.7,452.1,189.6,458.1,168.4z M404.3,60.7c2.3,0,4.1,1.9,4.1,4.3
	c0,2.4-1.8,4.3-4.1,4.3c-2.3,0-4.1-1.9-4.1-4.3C400.2,62.7,402.1,60.7,404.3,60.7z"/>
</svg>
